<svg data-v-423bf9ae="" xmlns="http://www.w3.org/2000/svg" viewBox="0 0 421.9780616782478 60" class="font"><!----><!----><!----><g data-v-423bf9ae="" id="71e3bb7d-bc19-4a41-a8ed-755f08cdfa1a" fill="black" transform="matrix(5.994006428013066,0,0,5.994006428013066,-4.55543743826189,-3.3566445080478147)"><path d="M5.82 6.03L5.82 6.03Q6.78 6.19 7.28 6.66L7.28 6.66L7.28 6.66Q7.78 7.13 7.78 7.74L7.78 7.74L7.78 7.74Q7.78 8.43 7.15 9.09L7.15 9.09L7.15 9.09Q6.51 9.74 5.40 10.16L5.40 10.16L5.40 10.16Q4.28 10.57 2.95 10.57L2.95 10.57L2.95 10.57Q2.55 10.57 2.02 10.25L2.02 10.25L2.02 10.25Q1.50 9.93 1.13 9.50L1.13 9.50L1.13 9.50Q0.76 9.07 0.76 8.78L0.76 8.78L0.76 8.78Q0.76 8.51 1.36 5.70L1.36 5.70L1.36 5.70Q1.81 3.60 1.95 2.80L1.95 2.80L1.46 2.87L1.46 2.87Q0.99 2.38 0.99 1.76L0.99 1.76L0.99 1.76Q0.99 1.32 1.25 0.91L1.25 0.91L1.25 0.91Q2.46 0.63 3.30 0.63L3.30 0.63L3.30 0.63Q4.58 0.63 5.67 1.04L5.67 1.04L5.67 1.04Q6.76 1.44 7.41 2.11L7.41 2.11L7.41 2.11Q8.05 2.79 8.05 3.56L8.05 3.56L8.05 3.56Q8.05 4.33 7.47 5.00L7.47 5.00L7.47 5.00Q6.89 5.68 5.82 6.03L5.82 6.03ZM3.54 5.36L3.54 5.36Q4.75 5.19 5.38 4.75L5.38 4.75L5.38 4.75Q6.02 4.31 6.02 3.72L6.02 3.72L6.02 3.72Q6.02 3.32 5.58 3.03L5.58 3.03L5.58 3.03Q5.14 2.74 4.42 2.74L4.42 2.74L4.42 2.74Q4.13 2.74 3.96 2.77L3.96 2.77L3.96 2.77Q3.86 3.40 3.82 3.64L3.82 3.64L3.82 3.64Q3.68 4.63 3.54 5.36L3.54 5.36ZM2.83 8.88L2.83 8.88Q4.10 8.79 4.74 8.40L4.74 8.40L4.74 8.40Q5.38 8.01 5.38 7.43L5.38 7.43L5.38 7.43Q5.38 7.11 5.13 6.89L5.13 6.89L5.13 6.89Q4.89 6.66 4.38 6.61L4.38 6.61L4.38 6.61Q3.95 6.58 3.44 6.66L3.44 6.66L3.36 6.97L3.36 6.97Q3.00 8.20 2.83 8.88L2.83 8.88ZM16.37 1.08L16.37 1.08Q16.53 2.10 16.53 3.05L16.53 3.05L16.53 3.05Q16.53 5.14 15.86 6.86L15.86 6.86L15.86 6.86Q15.19 8.58 14.11 9.58L14.11 9.58L14.11 9.58Q13.03 10.57 11.91 10.57L11.91 10.57L11.91 10.57Q11.35 10.57 10.62 10.16L10.62 10.16L10.62 10.16Q9.88 9.74 9.35 9.16L9.35 9.16L9.35 9.16Q8.82 8.58 8.82 8.13L8.82 8.13L8.82 8.13Q8.82 7.15 9.16 4.98L9.16 4.98L9.16 4.98Q9.49 2.81 9.95 1.22L9.95 1.22L9.95 1.22Q10.42 0.99 10.92 0.99L10.92 0.99L10.92 0.99Q11.45 0.99 11.84 1.28L11.84 1.28L11.84 1.28Q12.24 1.57 12.38 2.09L12.38 2.09L12.38 2.09Q11.97 3.02 11.58 4.73L11.58 4.73L11.58 4.73Q11.20 6.44 11.20 7.52L11.20 7.52L11.20 7.52Q11.20 8.57 11.61 8.57L11.61 8.57L11.61 8.57Q12.21 8.57 12.78 7.79L12.78 7.79L12.78 7.79Q13.36 7.01 13.72 5.77L13.72 5.77L13.72 5.77Q14.08 4.54 14.08 3.26L14.08 3.26L14.08 3.26Q14.08 2.31 13.86 1.47L13.86 1.47L13.86 1.47Q14.56 0.70 15.34 0.70L15.34 0.70L15.34 0.70Q15.89 0.70 16.37 1.08L16.37 1.08ZM25.23 2.34L24.35 3.47L24.35 3.47Q24.21 3.65 23.27 4.86L23.27 4.86L23.27 4.86Q22.33 6.06 21.29 7.27L21.29 7.27L21.14 8.54L21.14 8.54Q21.03 9.62 20.92 10.06L20.92 10.06L20.92 10.06Q20.82 10.50 20.59 10.50L20.59 10.50L20.59 10.50Q20.27 10.50 19.83 10.27L19.83 10.27L19.83 10.27Q19.39 10.04 19.06 9.72L19.06 9.72L19.06 9.72Q18.73 9.39 18.73 9.18L18.73 9.18L18.73 9.18Q18.72 8.93 18.82 8.46L18.82 8.46L18.82 8.46Q18.93 7.99 19.19 6.90L19.19 6.90L19.29 6.52L19.29 6.52Q19.19 6.30 18.55 4.98L18.55 4.98L18.55 4.98Q18.02 3.93 17.75 3.31L17.75 3.31L17.75 3.31Q17.49 2.69 17.49 2.35L17.49 2.35L17.49 2.35Q17.49 2.11 17.80 1.79L17.80 1.79L17.80 1.79Q18.12 1.47 18.56 1.24L18.56 1.24L18.56 1.24Q19.00 1.01 19.35 1.01L19.35 1.01L19.35 1.01Q19.61 1.01 19.77 1.48L19.77 1.48L19.77 1.48Q19.92 1.95 20.16 3.11L20.16 3.11L20.16 3.11Q20.38 4.33 20.61 5.15L20.61 5.15L20.61 5.15Q21.94 2.88 22.85 0.85L22.85 0.85L22.85 0.85Q23.31 0.73 23.67 0.73L23.67 0.73L23.67 0.73Q24.40 0.73 24.80 1.16L24.80 1.16L24.80 1.16Q25.20 1.60 25.23 2.34L25.23 2.34ZM36.08 7.55L36.08 7.55Q36.69 7.76 36.99 8.13L36.99 8.13L36.99 8.13Q37.30 8.50 37.30 8.97L37.30 8.97L37.30 8.97Q37.30 9.31 36.82 9.67L36.82 9.67L36.82 9.67Q36.34 10.02 35.69 10.26L35.69 10.26L35.69 10.26Q35.03 10.50 34.57 10.50L34.57 10.50L34.57 10.50Q34.24 10.50 33.82 10.25L33.82 10.25L33.82 10.25Q33.40 10.00 33.10 9.67L33.10 9.67L33.10 9.67Q32.80 9.34 32.80 9.16L32.80 9.16L32.80 9.16Q32.80 9.02 33.11 8.06L33.11 8.06L33.11 8.06Q33.66 6.40 33.66 5.96L33.66 5.96L33.66 5.96Q33.66 5.80 33.57 5.80L33.57 5.80L33.57 5.80Q33.01 5.80 31.49 7.76L31.49 7.76L31.49 7.76Q31.43 7.98 31.37 8.32L31.37 8.32L31.37 8.32Q31.30 8.65 31.28 8.79L31.28 8.79L31.28 8.79Q31.12 9.62 30.99 10.06L30.99 10.06L30.99 10.06Q30.86 10.50 30.65 10.50L30.65 10.50L30.65 10.50Q30.28 10.50 29.83 10.26L29.83 10.26L29.83 10.26Q29.37 10.01 29.04 9.68L29.04 9.68L29.04 9.68Q28.71 9.35 28.71 9.13L28.71 9.13L28.71 9.13Q28.71 8.88 28.90 8.39L28.90 8.39L28.90 8.39Q29.08 7.90 29.44 7.04L29.44 7.04L29.44 7.04Q29.72 6.38 29.86 6.01L29.86 6.01L29.86 6.01Q30.00 5.64 30.00 5.49L30.00 5.49L30.00 5.49Q30.00 5.38 29.87 5.24L29.87 5.24L29.87 5.24Q29.74 5.11 29.47 4.91L29.47 4.91L29.47 4.91Q29.16 4.68 29.01 4.54L29.01 4.54L29.01 4.54Q28.87 4.40 28.87 4.24L28.87 4.24L28.87 4.24Q28.87 3.95 29.14 3.56L29.14 3.56L29.14 3.56Q29.41 3.16 29.78 2.88L29.78 2.88L29.78 2.88Q30.16 2.60 30.42 2.60L30.42 2.60L30.42 2.60Q30.72 2.60 31.10 2.87L31.10 2.87L31.10 2.87Q31.49 3.14 31.77 3.48L31.77 3.48L31.77 3.48Q32.06 3.82 32.06 4.00L32.06 4.00L32.06 4.00Q32.06 4.34 31.98 4.83L31.98 4.83L31.98 4.83Q31.91 5.32 31.78 5.80L31.78 5.80L31.78 5.80Q32.80 4.45 33.47 3.72L33.47 3.72L33.47 3.72Q34.15 2.98 34.52 2.98L34.52 2.98L34.52 2.98Q34.79 2.98 35.17 3.25L35.17 3.25L35.17 3.25Q35.55 3.51 35.82 3.86L35.82 3.86L35.82 3.86Q36.09 4.20 36.09 4.38L36.09 4.38L36.09 4.38Q36.08 4.62 35.90 5.19L35.90 5.19L35.90 5.19Q35.71 5.77 35.38 6.72L35.38 6.72L35.38 6.72Q34.93 7.95 34.80 8.39L34.80 8.39L34.80 8.39Q35.24 8.16 35.48 8.00L35.48 8.00L35.48 8.00Q35.73 7.84 36.08 7.55L36.08 7.55ZM46.06 4.19L46.06 4.19Q46.17 3.49 46.17 3.07L46.17 3.07L46.17 3.07Q46.17 2.77 46.12 2.60L46.12 2.60L46.12 2.60Q46.07 2.44 46.00 2.44L46.00 2.44L46.00 2.44Q45.79 2.44 45.52 2.79L45.52 2.79L45.52 2.79Q45.25 3.14 45.06 3.62L45.06 3.62L45.06 3.62Q44.87 4.10 44.87 4.48L44.87 4.48L44.87 4.48Q44.87 4.96 45.34 5.44L45.34 5.44L45.34 5.44Q45.81 5.92 46.72 6.62L46.72 6.62L46.72 6.62Q47.40 7.13 47.74 7.46L47.74 7.46L47.74 7.46Q48.08 7.78 48.09 8.05L48.09 8.05L48.09 8.05Q48.10 8.64 47.47 9.21L47.47 9.21L47.47 9.21Q46.84 9.77 45.90 10.14L45.90 10.14L45.90 10.14Q44.95 10.50 44.14 10.50L44.14 10.50L44.14 10.50Q43.51 10.50 42.84 10.19L42.84 10.19L42.84 10.19Q42.17 9.87 41.72 9.44L41.72 9.44L41.72 9.44Q41.27 9.02 41.26 8.69L41.26 8.69L41.26 8.69Q41.23 8.08 41.66 7.69L41.66 7.69L41.66 7.69Q42.10 7.31 42.83 7.31L42.83 7.31L42.83 7.31Q43.19 7.31 43.57 7.41L43.57 7.41L43.57 7.41Q43.74 8.33 43.86 8.74L43.86 8.74L43.86 8.74Q44.69 8.53 45.65 8.01L45.65 8.01L45.65 8.01Q42.53 5.64 42.53 4.31L42.53 4.31L42.53 4.31Q42.53 3.67 43.01 2.76L43.01 2.76L43.01 2.76Q43.48 1.86 44.27 1.21L44.27 1.21L44.27 1.21Q45.05 0.56 45.92 0.56L45.92 0.56L45.92 0.56Q46.56 0.56 47.17 0.99L47.17 0.99L47.17 0.99Q47.77 1.43 48.15 2.06L48.15 2.06L48.15 2.06Q48.52 2.69 48.52 3.23L48.52 3.23L48.52 3.23Q48.52 3.77 48.10 4.08L48.10 4.08L48.10 4.08Q47.67 4.40 47.04 4.40L47.04 4.40L47.04 4.40Q46.55 4.40 46.06 4.19L46.06 4.19ZM55.20 5.92L55.31 7.01L55.31 7.01Q55.33 7.24 55.42 8.14L55.42 8.14L55.42 8.14Q55.51 9.04 55.51 9.65L55.51 9.65L55.51 9.65Q55.51 10.43 55.33 10.49L55.33 10.49L55.33 10.49Q55.27 10.50 55.15 10.50L55.15 10.50L55.15 10.50Q54.84 10.50 54.38 10.35L54.38 10.35L54.38 10.35Q53.93 10.21 53.57 9.98L53.57 9.98L53.57 9.98Q53.21 9.76 53.16 9.55L53.16 9.55L53.16 9.55Q53.10 9.34 53.10 7.78L53.10 7.78L53.10 7.78Q51.59 7.97 51.11 8.01L51.11 8.01L51.11 8.01Q50.74 9.11 50.25 10.43L50.25 10.43L50.25 10.43Q49.87 10.51 49.55 10.51L49.55 10.51L49.55 10.51Q48.99 10.51 48.60 10.24L48.60 10.24L48.60 10.24Q48.22 9.97 48.09 9.41L48.09 9.41L48.37 8.78L48.37 8.78Q49.91 5.35 51.04 3.02L51.04 3.02L51.04 3.02Q52.16 0.70 52.50 0.70L52.50 0.70L52.50 0.70Q52.77 0.70 53.28 0.90L53.28 0.90L53.28 0.90Q53.79 1.09 54.20 1.37L54.20 1.37L54.20 1.37Q54.61 1.65 54.67 1.88L54.67 1.88L54.67 1.88Q54.77 2.27 54.94 3.51L54.94 3.51L54.94 3.51Q55.10 4.76 55.20 5.92L55.20 5.92ZM53.06 2.88L53.06 2.88Q52.44 4.34 51.84 6.01L51.84 6.01L51.84 6.01Q52.49 5.96 53.12 5.88L53.12 5.88L53.12 5.88Q53.12 3.95 53.06 2.88L53.06 2.88ZM59.23 10.50L59.23 10.50Q58.97 10.50 58.46 10.27L58.46 10.27L58.46 10.27Q57.96 10.04 57.53 9.72L57.53 9.72L57.53 9.72Q57.11 9.41 57.05 9.18L57.05 9.18L57.05 9.18Q56.98 8.88 56.80 6.61L56.80 6.61L56.80 6.61Q56.74 5.70 56.70 5.28L56.70 5.28L56.70 5.28Q56.67 4.91 56.64 4.73L56.64 4.73L56.64 4.73Q56.46 2.86 56.46 2.02L56.46 2.02L56.46 2.02Q56.46 1.08 56.67 1.02L56.67 1.02L56.67 1.02Q56.73 1.01 56.85 1.01L56.85 1.01L56.85 1.01Q57.16 1.01 57.62 1.15L57.62 1.15L57.62 1.15Q58.07 1.30 58.42 1.53L58.42 1.53L58.42 1.53Q58.77 1.75 58.83 1.96L58.83 1.96L58.83 1.96Q58.86 2.04 58.86 2.59L58.86 2.59L58.86 2.59Q58.86 3.36 58.81 4.48L58.81 4.48L58.81 4.48Q58.76 6.30 58.76 7.29L58.76 7.29L58.76 7.80L58.76 7.80Q59.95 5.19 61.42 0.81L61.42 0.81L61.42 0.81Q61.84 0.67 62.27 0.67L62.27 0.67L62.27 0.67Q62.85 0.67 63.24 0.98L63.24 0.98L63.24 0.98Q63.64 1.29 63.77 1.92L63.77 1.92L63.77 1.92Q59.84 10.50 59.23 10.50L59.23 10.50ZM70.63 0.70L70.63 0.70Q70.90 0.85 71.03 1.13L71.03 1.13L71.03 1.13Q71.16 1.40 71.16 1.72L71.16 1.72L71.16 1.72Q71.16 2.00 71.05 2.28L71.05 2.28L71.05 2.28Q70.94 2.56 70.76 2.74L70.76 2.74L70.76 2.74Q68.95 2.77 67.75 2.88L67.75 2.88L67.75 2.88Q67.51 3.74 67.30 4.79L67.30 4.79L67.30 4.79Q68.70 4.68 69.66 4.45L69.66 4.45L69.66 4.45Q69.94 4.62 70.09 4.89L70.09 4.89L70.09 4.89Q70.24 5.17 70.24 5.49L70.24 5.49L70.24 5.49Q70.24 5.78 70.12 6.04L70.12 6.04L70.12 6.04Q70 6.30 69.79 6.45L69.79 6.45L69.79 6.45Q69.52 6.48 69.27 6.50L69.27 6.50L69.27 6.50Q69.02 6.51 68.78 6.52L68.78 6.52L66.98 6.65L66.72 7.91L66.58 8.58L66.58 8.58Q67.44 8.50 68.13 8.35L68.13 8.35L68.13 8.35Q68.82 8.20 69.59 7.94L69.59 7.94L69.59 7.94Q69.99 8.12 70.20 8.45L70.20 8.45L70.20 8.45Q70.42 8.78 70.42 9.17L70.42 9.17L70.42 9.17Q70.42 9.73 69.99 10.16L69.99 10.16L69.99 10.16Q69.12 10.33 68.04 10.42L68.04 10.42L68.04 10.42Q66.96 10.50 66.04 10.50L66.04 10.50L66.04 10.50Q65.79 10.50 65.38 10.25L65.38 10.25L65.38 10.25Q64.97 10.00 64.66 9.66L64.66 9.66L64.66 9.66Q64.34 9.32 64.34 9.09L64.34 9.09L64.34 9.09Q64.34 8.88 64.67 7.46L64.67 7.46L64.67 7.46Q64.90 6.43 65.13 5.31L65.13 5.31L65.13 5.31Q65.28 4.54 65.28 4.54L65.28 4.54L65.28 4.54Q65.51 3.44 65.58 2.95L65.58 2.95L64.99 3.00L64.99 3.00Q64.72 2.86 64.56 2.58L64.56 2.58L64.56 2.58Q64.40 2.31 64.40 1.99L64.40 1.99L64.40 1.99Q64.40 1.43 64.83 0.99L64.83 0.99L64.83 0.99Q66.75 0.97 68.17 0.91L68.17 0.91L68.17 0.91Q69.59 0.85 70.63 0.70L70.63 0.70Z"></path></g><!----><!----></svg>